<svg xmlns="http://www.w3.org/2000/svg"  width="178" height="28" role="img" aria-label="POWERED BY CRXJS">
  <title>POWERED BY CRXJS</title>
  <rect width="100%" height="100%" fill="#298CD6" />

  <path
    d="M30.2075 30.1159C30.2075 27.4949 31.4693 25.411 33.5412 24.5118C35.6142 23.6128 37.9505 24.0963 39.7554 25.7186C40.3344 26.2382 40.8404 26.4879 41.3691 26.2449C41.9116 25.9951 42.0003 25.0795 42.0003 24.5104L42.0003 14.7445C42.0003 13.4393 41.0171 12.5066 39.6925 12.5066L29.9793 12.5066C26.7399 12.5066 26.0179 9.81568 27.6753 7.9647C30.404 4.91702 28.9422 0.204498 23.9773 0C19.013 0.203789 17.5516 4.90866 20.2798 7.95654C21.937 9.80834 21.2157 12.5064 17.9763 12.5064L8.40635 12.5064C7.08253 12.5064 6 13.4391 6 14.7443L6 45.5903C6 46.8957 7.08258 48.0003 8.40635 48.0003L39.6921 48.0003C41.0167 48.0003 41.9999 46.8957 41.9999 45.5903L41.9999 35.8882C41.9999 35.319 41.8677 34.3613 41.3147 34.1072C40.7654 33.8551 40.1174 34.1182 39.5321 34.6445C37.7345 36.2612 35.533 36.711 33.4824 35.8212C31.4211 34.9261 30.2071 32.8216 30.2071 30.1927L30.2075 30.1159Z" 
    fill="#F2BAE4"
    transform="translate(5, 2) scale(0.5)"
  ></path>

  <text x="35" y="19" 
        font-family="Verdana, Geneva, sans-serif" 
        font-size="12"
        font-weight="bold"
        fill="#F2BAE4">
    POWERED BY CRXJS
  </text>
</svg>
